<?xml version="1.0" encoding="iso-8859-1"?>
<!-- Generator: Adobe Illustrator 19.0.0, SVG Export Plug-In . SVG Version: 6.00 Build 0)  -->
<svg version="1.1" id="Layer_1" xmlns="http://www.w3.org/2000/svg" xmlns:xlink="http://www.w3.org/1999/xlink" x="0px" y="0px"
	 viewBox="0 0 512 512" style="enable-background:new 0 0 512 512;" xml:space="preserve">
<g>
	<g>
		<g>
			<path d="M440.139,334.413l-0.092-0.086c-14.9-13.857-28.109-23.486-40.2-29.205c26.768-26.945,42.316-63.928,42.316-102.275
				c0-79.879-64.987-144.865-144.865-144.865c-31.231,0-61.74,10.301-86.598,28.781c-3.222-13.864-11.168-29.699-24.262-48.736
				C168.849,12.438,150.484,0,130.294,0c-23.918,0-43.298,17.53-60.397,32.995c-2.997,2.711-5.829,5.273-8.585,7.645
				C50.939,49.372,44.63,64.078,43.062,83.178c-2.325,28.302,5.717,65.727,22.644,105.38
				c19.074,44.682,48.947,91.372,86.347,134.973c85.329,100.723,176.636,145.806,229.272,145.806
				c15.293,0,27.453-3.688,36.143-10.959l0.128-0.109c2.912-2.515,6.022-5.067,9.314-7.766c19.408-15.918,41.407-33.961,42.387-60.4
				C469.972,371.958,460.434,353.742,440.139,334.413z M210.046,115.413c23.036-22.969,54.685-36.097,87.253-36.097
				c68.115-0.001,123.532,55.416,123.532,123.531c0,37.035-17.001,72.586-45.657,95.889c-0.33-0.008-0.659-0.019-0.988-0.019
				c-19.801,0-33.832,11.893-48.505,24.746c-0.031,0.027-0.063,0.053-0.093,0.081c-0.318,0.278-0.636,0.557-0.955,0.835
				c-1.614,1.414-3.253,2.852-4.963,4.33c-0.869,0.757-2.087,1.533-4.524,1.533c-8.97,0-32.128-9.472-86.42-72.879
				c-22.91-26.954-38.647-48.446-48.111-65.706c-9.379-17.105-12.156-29.824-7.446-34.075c1.367-1.13,2.724-2.239,4.062-3.333
				C191.376,142.673,204.779,131.687,210.046,115.413z M413.382,434.008c-3.375,2.768-6.563,5.383-9.661,8.057
				c-4.687,3.886-12.428,5.939-22.396,5.939c-46.17,0-132.517-43.267-213.039-138.313c-36.043-42.02-64.731-86.805-82.96-129.509
				c-15.59-36.521-23.05-70.351-21.004-95.259c1.079-13.134,4.898-23.073,10.752-27.983l0.102-0.086
				c2.971-2.556,5.915-5.218,9.03-8.036c4.877-4.411,9.977-9.023,15.205-13.181c5.732,6.303,14.774,16.818,24.383,30.226
				c2.082,2.907,5.356,4.454,8.68,4.454c2.151,0,4.322-0.648,6.204-1.998c4.788-3.431,5.889-10.095,2.457-14.884
				c-8.914-12.437-17.291-22.461-23.38-29.318c4.181-1.749,8.377-2.783,12.539-2.783c12.464,0,25.438,9.682,38.565,28.781
				c17.442,25.356,24.465,43.901,21.469,56.694c-2.651,11.325-13.224,19.977-26.607,30.93c-1.405,1.15-2.829,2.316-4.267,3.503
				l-0.205,0.174c-13.711,11.919-12.814,32.273,2.664,60.497c10.166,18.541,26.705,41.197,50.586,69.294
				c46.946,54.829,79.564,80.367,102.649,80.367c7.035,0,13.444-2.345,18.501-6.749c0.095-0.082,0.185-0.161,0.279-0.243
				c5.451,3.379,13.667,8.618,22.154,14.566c7.041,4.935,13.113,9.549,18.047,13.711c2.002,1.689,4.444,2.513,6.873,2.513
				c3.035,0,6.049-1.287,8.158-3.789c3.799-4.504,3.227-11.233-1.275-15.032c-5.419-4.571-11.999-9.576-19.557-14.874
				c-6.27-4.395-12.339-8.385-17.37-11.594c7.79-6.031,15.069-10.035,23.229-10.035c12.899,0,29.675,9.765,51.282,29.851
				c15.364,14.645,22.939,27.904,22.511,39.41C447.357,406.145,430.085,420.309,413.382,434.008z"/>
			<path d="M159.143,107.498c1.77,0,3.563-0.442,5.215-1.37c5.136-2.885,6.961-9.388,4.076-14.524
				c-1.68-2.99-3.344-5.631-5.233-8.31c-3.397-4.813-10.052-5.962-14.866-2.565s-5.962,10.052-2.565,14.865
				c1.459,2.068,2.751,4.121,4.065,6.459C151.791,105.538,155.412,107.498,159.143,107.498z"/>
			<path d="M413.573,378.661c-4.114-4.193-10.831-4.257-15.041-0.161c-4.21,4.097-4.302,10.839-0.223,15.066
				c0.049,0.051,1.247,1.296,5.878,6.463c2.108,2.35,5.021,3.547,7.946,3.547c2.536,0,5.081-0.899,7.117-2.724
				c4.386-3.932,4.755-10.676,0.822-15.062C415.116,380.258,413.789,378.881,413.573,378.661z"/>
			<path d="M321.748,218.114h35.395v17.404c0,3.981,4.866,6.046,9.583,6.046c4.87,0,9.588-2.065,9.588-6.046v-17.404h6.931
				c3.094,0,6.046-4.424,6.046-8.848c0-4.57-2.066-8.997-6.046-8.997h-6.931v-15.486c0-4.277-4.718-6.046-9.588-6.046
				c-4.718,0-9.583,1.769-9.583,6.046v15.486h-17.257l28.316-56.63c0.443-0.885,0.738-1.771,0.738-2.509
				c0-4.422-6.194-7.374-9.588-7.374c-3.094,0-6.336,1.328-8.108,5.016l-34.953,68.722c-0.738,1.328-1.034,2.656-1.034,3.835
				C315.259,215.607,318.063,218.114,321.748,218.114z"/>
			<path d="M245.748,241.564h52.5c3.247,0,6.047-4.13,6.047-8.553c0-4.425-2.804-8.257-6.047-8.257H257.25v-3.541
				c0-15.338,46.749-25.661,46.749-57.514c0-18.729-15.924-29.939-33.035-29.939c-16.367,0-31.706,10.324-31.706,27.137
				c0,7.964,3.689,10.323,8.702,10.323c6.341,0,10.026-3.539,10.026-7.08c0-9.143,5.899-12.977,13.125-12.977
				c9.736,0,13.715,7.08,13.715,13.125c0,20.794-47.484,33.331-47.484,56.925v14.306
				C237.345,239.201,242.354,241.564,245.748,241.564z"/>
			<path d="M362.663,490.667H149.328c-5.89,0-10.667,4.777-10.667,10.667c0,5.891,4.777,10.667,10.667,10.667h213.335
				c5.89,0,10.667-4.775,10.667-10.667C373.33,495.443,368.554,490.667,362.663,490.667z"/>
		</g>
	</g>
</g>
<g>
</g>
<g>
</g>
<g>
</g>
<g>
</g>
<g>
</g>
<g>
</g>
<g>
</g>
<g>
</g>
<g>
</g>
<g>
</g>
<g>
</g>
<g>
</g>
<g>
</g>
<g>
</g>
<g>
</g>
</svg>
