<svg height="512pt" viewBox="0 0 512 512" width="512pt" xmlns="http://www.w3.org/2000/svg"><path d="m367.875 164.972656c-3.710938 0-7.007812-2.636718-7.71875-6.414062l-22.589844-120.488282h-21.46875c-4.339844 0-7.859375-3.519531-7.859375-7.859374 0-4.339844 3.519531-7.859376 7.859375-7.859376h27.992188c3.78125 0 7.027344 2.695313 7.722656 6.410157l23.792969 126.902343c.800781 4.265626-2.007813 8.371094-6.273438 9.171876-.492187.089843-.980469.136718-1.457031.136718zm0 0" fill="#ccc"/><path d="m483.574219 434.523438c0 3.59375-.238281 7.132812-.722657 10.601562-5.164062 37.679688-37.488281 66.703125-76.582031 66.703125-39.105469 0-71.417969-29.023437-76.585937-66.703125-.480469-3.46875-.722656-7.007812-.722656-10.601562zm0 0" fill="#2e5968"/><path d="m483.574219 434.523438c0 3.59375-.238281 7.132812-.722657 10.601562h-153.167968c-.480469-3.46875-.722656-7.007812-.722656-10.601562zm0 0" fill="#1a414c"/><path d="m371.953125 434.527344c0 18.949218 15.363281 34.3125 34.3125 34.3125 18.953125 0 34.316406-15.363282 34.316406-34.3125" fill="#e6e6e6"/><path d="m196.445312 434.523438c0 3.605468-.25 7.144531-.722656 10.613281-5.175781 37.679687-37.488281 66.691406-76.582031 66.691406-39.082031 0-71.398437-29.011719-76.574219-66.691406-.472656-3.46875-.722656-7.007813-.722656-10.613281zm0 0" fill="#2e5968"/><path d="m196.445312 434.523438c0 3.605468-.25 7.144531-.722656 10.613281h-153.15625c-.472656-3.46875-.722656-7.007813-.722656-10.613281zm0 0" fill="#1a414c"/><path d="m84.828125 434.527344c0 18.949218 15.363281 34.3125 34.3125 34.3125 18.953125 0 34.316406-15.363282 34.316406-34.3125" fill="#e6e6e6"/><path d="m360.484375 419.859375h-75.332031c-19.410156 0-34.082032-17.949219-29.804688-36.886719.03125-.140625.0625-.277344.09375-.414062l10.289063-43.640625c4.398437-18.65625-9.753907-36.535157-28.921875-36.535157l-206.546875-11.78125v129.257813c-4.339844 0-7.855469 3.515625-7.855469 7.855469s3.515625 7.859375 7.855469 7.859375h330.550781c4.421875 0 7.988281-3.648438 7.855469-8.101563-.128907-4.300781-3.882813-7.613281-8.183594-7.613281zm0 0" fill="#ccc"/><path d="m462.082031 165.394531v76.457031h-38.234375c-10.550781 0-20.117187-4.273437-27.03125-11.1875-6.925781-6.925781-11.203125-16.484374-11.203125-27.035156 0-3.980468.609375-7.816406 1.742188-11.421875 4.847656-15.539062 19.363281-26.8125 36.492187-26.8125zm0 0" fill="#ccc"/><path d="m462.082031 165.394531v53.617188h-38.234375c-10.550781 0-20.117187-4.285157-27.03125-11.203125-4.316406-4.304688-7.597656-9.636719-9.460937-15.601563 4.847656-15.539062 19.363281-26.8125 36.492187-26.8125zm0 0" fill="#e6e6e6"/><path d="m432.253906 333.0625-86.488281 77.925781-27.285156 24.582031 9.035156-24.582031.53125-1.457031 34.933594-95.023438 3.113281-8.476562-6.644531-162.484375h23.660156c40.84375 54.519531 48.441406 127.507813 49.425781 165.007813.398438 15.152343-.28125 24.507812-.28125 24.507812zm0 0" fill="#f4d553"/><path d="m379.933594 345.628906c-13.921875 36.703125-33.539063 55.039063-51.886719 63.902344l38.046875-103.5-6.644531-162.484375s54.613281 112.148437 20.484375 202.082031zm0 0" fill="#f2a755"/><path d="m432.253906 333.0625-86.488281 77.925781h-18.25l.53125-1.457031 34.933594-95.023438c13.214843-5.941406 27.863281-9.242187 43.285156-9.242187 9.074219 0 17.875 1.140625 26.269531 3.289063.398438 15.152343-.28125 24.507812-.28125 24.507812zm0 0" fill="#f2a755"/><path d="m512 435.570312h-193.519531l33.3125-90.613281c15.902343-9.597656 34.542969-15.109375 54.472656-15.109375 58.394531 0 105.734375 47.328125 105.734375 105.722656zm0 0" fill="#f4d553"/><path d="m345.796875 435.570312h-27.316406l33.3125-90.613281c15.902343-9.597656 34.542969-15.109375 54.472656-15.109375-23.605469 0-67.300781 61.851563-60.46875 105.722656zm0 0" fill="#f2a755"/><path d="m232.460938 435.574219c0-58.859375-47.710938-106.570313-106.570313-106.570313s-125.890625 47.710938-125.890625 106.570313zm0 0" fill="#f4d553"/><path d="m142.792969 330.34375c-43.085938 8.089844-86.703125 52.128906-86.703125 105.230469h-56.089844c0-58.855469 67.027344-106.570313 125.894531-106.570313 5.75 0 11.398438.449219 16.898438 1.339844zm0 0" fill="#f2a755"/><path d="m390.855469 143.542969c0 17.347656-14.0625 31.40625-31.40625 31.40625s-31.40625-14.058594-31.40625-31.40625c0-17.34375 14.0625-31.40625 31.40625-31.40625s31.40625 14.0625 31.40625 31.40625zm0 0" fill="#2e5968"/><path d="m375.425781 143.542969c0 8.824219-7.152343 15.976562-15.976562 15.976562-8.820313 0-15.972657-7.152343-15.972657-15.976562 0-8.820313 7.152344-15.972657 15.972657-15.972657 8.824219 0 15.976562 7.152344 15.976562 15.972657zm0 0" fill="#1a414c"/><path d="m285.71875 272.125c0 16.710938-13.550781 30.257812-30.261719 30.257812h-225.195312c-8.359375 0-15.925781-3.382812-21.394531-8.863281-5.480469-5.46875-8.86328175-13.035156-8.86328175-21.394531 0-16.722656 13.54687475-30.273438 30.25781275-30.273438h225.195312c8.359375 0 15.925781 3.386719 21.394531 8.867188 5.480469 5.480469 8.867188 13.042969 8.867188 21.40625zm0 0" fill="#1a414c"/><path d="m285.71875 272.125c0 16.710938-13.550781 30.257812-30.261719 30.257812h-161.015625c-8.351562 0-15.917968-3.382812-21.394531-8.863281-5.480469-5.46875-8.867187-13.035156-8.867187-21.394531 0-16.722656 13.550781-30.273438 30.261718-30.273438h161.015625c8.359375 0 15.925781 3.386719 21.394531 8.867188 5.480469 5.480469 8.867188 13.042969 8.867188 21.40625zm0 0" fill="#2e5968"/><path d="m30.265625 63.152344h178.703125v178.699218h-178.703125zm0 0" fill="#4ccc9b"/><path d="m208.96875 63.152344v8.484375l-86.390625 35.15625c-.953125.386719-1.960937.574219-2.964844.574219-1.007812 0-2.011719-.1875-2.957031-.574219l-86.390625-35.15625v-8.484375h20.832031l68.515625 27.878906 68.523438-27.878906zm0 0" fill="#31ad7a"/><path d="m180.304688 160.351562-21-21c-1.472657-1.472656-3.46875-2.300781-5.554688-2.300781s-4.082031.824219-5.554688 2.300781l-21 21c-3.070312 3.070313-3.070312 8.042969 0 11.113282 3.066407 3.066406 8.042969 3.066406 11.109376 0l7.585937-7.585938v46.234375c0 4.339844 3.519531 7.859375 7.859375 7.859375s7.859375-3.519531 7.859375-7.859375v-46.234375l7.585937 7.585938c1.53125 1.535156 3.542969 2.300781 5.554688 2.300781s4.023438-.765625 5.554688-2.300781c3.070312-3.070313 3.070312-8.042969 0-11.113282zm0 0" fill="#2e5968"/><path d="m91.035156 139.351562c-1.472656-1.472656-3.472656-2.300781-5.558594-2.300781-2.082031 0-4.082031.824219-5.554687 2.300781l-21 21c-3.070313 3.070313-3.070313 8.042969 0 11.113282 3.066406 3.066406 8.042969 3.066406 11.113281 0l7.582032-7.585938v46.234375c0 4.339844 3.519531 7.859375 7.859374 7.859375 4.339844 0 7.859376-3.519531 7.859376-7.859375v-46.234375l7.585937 7.585938c1.53125 1.535156 3.542969 2.300781 5.554687 2.300781 2.011719 0 4.023438-.765625 5.558594-2.300781 3.066406-3.070313 3.066406-8.042969 0-11.113282zm0 0" fill="#2e5968"/><path d="m316.09375 13.316406v39.933594c0 5.542969-3.382812 10.289062-8.191406 12.289062-1.574219.660157-3.300782 1.027344-5.113282 1.027344-7.355468 0-13.320312-5.960937-13.320312-13.316406v-39.933594c0-3.675781 1.488281-7.007812 3.898438-9.417968 2.410156-2.410157 5.742187-3.898438 9.421874-3.898438 1.8125 0 3.539063.367188 5.113282 1.027344 4.808594 2 8.191406 6.746094 8.191406 12.289062zm0 0" fill="#ccc"/><path d="m316.09375 13.316406v39.933594c0 5.542969-3.382812 10.289062-8.191406 12.289062-4.8125-2-8.195313-6.746093-8.195313-12.289062v-39.933594c0-3.675781 1.488281-7.007812 3.898438-9.417968 1.214843-1.214844 2.683593-2.199219 4.296875-2.871094 4.808594 2 8.191406 6.746094 8.191406 12.289062zm0 0" fill="#e6e6e6"/></svg>